<?xml version="1.0" encoding="UTF-8"?>
<svg id="Layer_1" data-name="Layer 1" xmlns="http://www.w3.org/2000/svg" xmlns:xlink="http://www.w3.org/1999/xlink" viewBox="0 0 184 60">
  <defs>
    <style>
      .cls-1 {
        fill: none;
      }

      .cls-2 {
        clip-path: url(#clippath);
      }

      .cls-3 {
        fill: #9f9f9f;
      }
    </style>
    <clipPath id="clippath">
      <rect class="cls-1" width="184" height="60"/>
    </clipPath>
  </defs>
  <g class="cls-2">
    <g>
      <path class="cls-3" d="M58.55,49.97h-.6c-.66-.11-1.18-.45-1.67-.89-5.07-4.64-10.15-9.27-15.23-13.9-.14-.13-.28-.25-.42-.38-.08,.06-.14,.11-.2,.15-2.2,1.67-4.39,3.34-6.59,5-.8,.6-1.59,.57-2.34-.11-.59-.53-1.17-1.08-1.77-1.6-.4-.35-.75-.73-.89-1.27v-.6c.15-.48,.45-.84,.81-1.17,1.85-1.67,3.68-3.36,5.52-5.03,.06-.05,.15-.07,.23-.11-.15-.14-.21-.2-.27-.25-1.83-1.67-3.65-3.34-5.49-5-.38-.35-.7-.71-.82-1.22v-.55c.13-.53,.47-.9,.87-1.25,.59-.52,1.17-1.05,1.75-1.58,.8-.73,1.57-.76,2.44-.11,1.55,1.17,3.09,2.34,4.63,3.52,.7,.53,1.4,1.06,2.1,1.59,.05-.04,.09-.07,.13-.1,5.21-4.75,10.43-9.51,15.64-14.27,.96-.88,1.91-1.02,3.08-.46,2.66,1.28,5.31,2.56,7.97,3.83,1.03,.5,1.55,1.31,1.55,2.45,0,8.88,0,17.76,0,26.64,0,1.19-.51,2.02-1.59,2.53-1.69,.8-3.36,1.64-5.06,2.43-1.26,.59-2.46,1.32-3.8,1.73Zm-11.6-19.97c4.01,3.04,7.99,6.06,11.98,9.1V20.9c-4.01,3.04-7.98,6.06-11.98,9.1Z"/>
      <g>
        <path class="cls-3" d="M90.48,44.38l-11.54-26.4h5.32l10.3,23.87h-3.09l10.48-23.87h4.86l-11.5,26.4h-4.83Z"/>
        <path class="cls-3" d="M121.63,44.75c-2.04,0-3.91-.33-5.62-1-1.71-.67-3.2-1.62-4.47-2.85-1.27-1.23-2.26-2.67-2.96-4.3-.7-1.63-1.06-3.44-1.06-5.43s.35-3.8,1.06-5.43c.7-1.63,1.7-3.07,2.98-4.3,1.28-1.23,2.78-2.18,4.49-2.85s3.58-1,5.62-1c2.16,0,4.13,.37,5.92,1.11,1.78,.74,3.29,1.84,4.52,3.3l-3.17,2.98c-.98-1.03-2.06-1.8-3.24-2.32-1.18-.51-2.45-.77-3.81-.77s-2.65,.23-3.79,.68c-1.14,.45-2.14,1.09-2.98,1.92s-1.5,1.81-1.98,2.94c-.48,1.13-.72,2.38-.72,3.73s.24,2.6,.72,3.73c.48,1.13,1.14,2.11,1.98,2.94s1.83,1.47,2.98,1.92,2.41,.68,3.79,.68,2.63-.26,3.81-.77c1.18-.52,2.26-1.3,3.24-2.36l3.17,2.98c-1.23,1.46-2.74,2.56-4.52,3.32-1.79,.75-3.77,1.13-5.96,1.13Z"/>
        <path class="cls-3" d="M144.48,44.75c-2.06,0-4.03-.3-5.9-.89-1.87-.59-3.38-1.35-4.51-2.28l1.7-3.81c1.06,.83,2.36,1.52,3.92,2.08,1.56,.55,3.15,.83,4.79,.83,1.38,0,2.5-.15,3.36-.45,.85-.3,1.48-.71,1.89-1.23s.6-1.1,.6-1.75c0-.8-.29-1.45-.87-1.94-.58-.49-1.33-.88-2.24-1.17-.92-.29-1.94-.55-3.05-.79-1.12-.24-2.24-.53-3.36-.89-1.12-.35-2.14-.8-3.07-1.34s-1.68-1.26-2.24-2.17c-.57-.91-.85-2.06-.85-3.47s.38-2.75,1.15-3.94,1.94-2.15,3.51-2.87c1.57-.72,3.56-1.07,5.98-1.07,1.58,0,3.15,.2,4.71,.6,1.56,.4,2.92,.98,4.07,1.73l-1.55,3.81c-1.18-.7-2.4-1.22-3.66-1.56s-2.46-.51-3.62-.51c-1.33,0-2.43,.16-3.28,.49s-1.48,.76-1.87,1.3c-.39,.54-.58,1.14-.58,1.79,0,.8,.28,1.45,.85,1.94s1.31,.87,2.22,1.15c.92,.28,1.94,.54,3.07,.79,1.13,.25,2.25,.55,3.36,.88,1.11,.34,2.12,.78,3.05,1.32,.93,.54,1.68,1.26,2.24,2.15,.57,.89,.85,2.03,.85,3.41s-.38,2.71-1.15,3.9c-.77,1.19-1.94,2.15-3.53,2.87-1.58,.72-3.58,1.07-6,1.07Z"/>
      </g>
    </g>
  </g>
</svg>